<!-- Generated by IcoMoon.io -->
<svg version="1.1" xmlns="http://www.w3.org/2000/svg" width="512" height="512" viewBox="0 0 512 512">
<g id="icomoon-ignore">
</g>
<path fill="#000" d="M475.428 182.857c20.286 0 36.572 16.285 36.572 36.571s-16.286 36.572-36.572 36.572v109.714c0 20-16.572 36.572-36.572 36.572-50.857-42.286-132.857-100.286-232-108.572-34 11.428-45.714 51.143-23.428 74-20 32.857 5.714 56 36 79.714-17.714 34.857-91.428 35.428-117.715 11.143-16.572-50.857-41.143-101.714-21.143-166h-34.857c-25.143 0-45.715-20.572-45.715-45.714v-54.857c0-25.143 20.572-45.715 45.715-45.715h137.143c109.714 0 201.143-64 256-109.715 20 0 36.572 16.572 36.572 36.572v109.715zM438.857 355.428v-272.572c-74.572 57.143-146.857 90-219.429 98v77.143c72.571 8 144.857 40.286 219.429 97.428z"></path>
</svg>
