<!-- Generated by IcoMoon.io -->
<svg version="1.1" xmlns="http://www.w3.org/2000/svg" width="512" height="512" viewBox="0 0 512 512">
<g id="icomoon-ignore">
</g>
<path fill="#000" d="M219.429 475.428h256v-182.857h-118.857c-15.143 0-27.428-12.286-27.428-27.428v-118.857h-109.714v329.143zM292.572 64v-18.285c0-4.857-4.286-9.143-9.143-9.143h-201.143c-4.857 0-9.143 4.285-9.143 9.143v18.285c0 4.857 4.285 9.143 9.143 9.143h201.143c4.857 0 9.143-4.285 9.143-9.143zM365.714 256h85.428l-85.428-85.428v85.428zM512 292.572v192c0 15.143-12.286 27.428-27.428 27.428h-274.286c-15.143 0-27.428-12.286-27.428-27.428v-45.714h-155.429c-15.143 0-27.428-12.286-27.428-27.428v-384c0-15.143 12.286-27.428 27.428-27.428h310.857c15.143 0 27.428 12.286 27.428 27.428v93.715c3.714 2.285 7.143 4.857 10.286 8l116.572 116.572c10.857 10.857 19.429 31.714 19.429 46.857z"></path>
</svg>
