<!-- Generated by IcoMoon.io -->
<svg version="1.1" xmlns="http://www.w3.org/2000/svg" width="659" height="512" viewBox="0 0 659 512">
<g id="icomoon-ignore">
</g>
<path fill="#000" d="M54.857 329.143c24 0 24-36.572 0-36.572s-24 36.572 0 36.572zM475.714 312.572c-22.572-29.428-44.572-59.428-70.286-86.286l-35.714 40c-31.428 35.714-87.714 34.857-118.286-1.714-21.714-26.286-21.714-64 0.571-90l50.571-58.857c-17.714-9.143-39.143-6-58.286-6-16.857 0-33.143 6.857-45.143 18.857l-45.143 45.143h-44.285v155.429c12.572 0 24-1.714 34 8l84.857 83.428c17.429 16.857 40 31.714 64.857 31.714 12.857 0 26.572-4.286 35.714-13.428 21.428 7.428 46.286-4.572 52.857-26.572 13.714 1.143 26.286-3.143 36.286-12.572 6.572-6 15.143-18 14.286-27.428 2.572 2.572 8.857 2.857 12.286 2.857 34 0 51.714-35.714 30.857-62.572zM521.143 329.143h27.428v-146.286h-26.572l-44.857-51.428c-12-13.715-30-21.715-48.286-21.715h-47.714c-16 0-31.428 7.143-41.714 19.143l-59.714 69.428c-10.572 12.572-10.572 30.286-0.286 42.857 16.286 19.429 46.286 19.715 63.143 0.857l55.143-62.286c13.143-14.572 37.143-0.857 31.143 17.714 10.857 12.572 22.572 24.857 33.143 37.428 14.286 17.714 28 36.286 42 54.286 8.857 11.428 15.428 25.143 17.143 40zM603.428 329.143c24 0 24-36.572 0-36.572s-24 36.572 0 36.572zM658.285 164.571v182.857c0 10-8.285 18.286-18.285 18.286h-124c-10.286 24.857-32.857 41.428-59.143 45.143-12.286 18-31.143 31.714-52.286 36.286-15.714 20-41.143 32-66.572 30.286-47.143 26.572-100.286 3.428-135.429-31.143l-82-80.572h-102.285c-10 0-18.285-8.286-18.285-18.286v-192c0-10 8.286-18.286 18.285-18.286h120.285c33.143-33.143 56-64 105.715-64h33.428c18.572 0 36.572 5.715 51.714 16 15.143-10.285 33.143-16 51.714-16h47.714c54.286 0 76.857 35.428 109.714 73.143h101.428c10 0 18.285 8.286 18.285 18.285z"></path>
</svg>
