<!-- Generated by IcoMoon.io -->
<svg version="1.1" xmlns="http://www.w3.org/2000/svg" width="549" height="512" viewBox="0 0 549 512">
<g id="icomoon-ignore">
</g>
<path fill="#000" d="M219.429 329.143h109.715v-27.428h-36.572v-128h-32.572l-42.286 39.143 22 22.857c6.857-6 11.143-9.143 15.714-16.286h0.572v82.286h-36.572v27.428zM365.714 256c0 52-31.428 118.857-91.428 118.857s-91.428-66.857-91.428-118.857 31.428-118.857 91.428-118.857 91.428 66.857 91.428 118.857zM512 329.143v-146.286c-40.286 0-73.143-32.857-73.143-73.143h-329.143c0 40.285-32.857 73.143-73.143 73.143v146.286c40.285 0 73.143 32.857 73.143 73.143h329.143c0-40.286 32.857-73.143 73.143-73.143zM548.572 91.428v329.143c0 10-8.285 18.286-18.285 18.286h-512c-10 0-18.285-8.286-18.285-18.286v-329.143c0-10 8.286-18.285 18.285-18.285h512c10 0 18.285 8.285 18.285 18.285z"></path>
</svg>
