<!-- Generated by IcoMoon.io -->
<svg version="1.1" xmlns="http://www.w3.org/2000/svg" width="1024" height="1024" viewBox="0 0 1024 1024">
<g id="icomoon-ignore">
</g>
<path fill="#000" d="M734.592 991.104h-159.488c-105.728 0-191.392-85.696-191.392-191.392v-287.104h193.408v63.808c0 35.232 26.56 63.776 61.824 63.776h31.872c35.264 0 63.808-28.576 63.808-63.776v-63.808h193.376v287.104c0 105.696-87.712 191.392-193.408 191.392zM734.592 448.8c0-35.232-28.576-63.808-63.808-63.808v0-189.408c0 0-41.856-1.984 61.824-1.984s195.392 67.776 195.392 191.392c0 63.456 0 86.336 0 93.696h-193.408v-29.888zM641.216 172c0-61.664-29.024-96-87.136-96-61.472 0-108.512 44.288-141.088 132.832l-6.688 18.144c-38.112 103.52-93.984 155.296-167.52 155.296-29.696 0-57.408-11.328-83.168-33.92-25.76-22.624-38.624-46.912-38.624-72.928 0-12.864 6.016-19.328 18.112-19.328 8.16 0 16.576 10.272 25.248 30.784 15.744 37.888 42.048 56.832 78.848 56.832 27.872 0 50.656-8.992 68.416-27.040 17.76-18.016 37.952-52.672 60.544-103.968l14.592-32.352c42.848-95.744 100.576-143.616 173.088-143.616 83.104 0 124.64 47.424 124.64 135.264h-39.264zM702.688 464.736v95.68c0 26.432-21.408 47.84-47.84 47.84s-47.84-21.408-47.84-47.84v-95.68c0-26.432 21.408-47.872 47.84-47.872s47.84 21.44 47.84 47.872zM577.088 193.6c103.648 0 63.776 1.984 63.776 1.984v189.408c-35.232 0-63.776 28.576-63.776 63.808v29.92h-193.408c0-7.36 0-30.24 0-93.696 0-123.648 89.728-191.424 193.408-191.424z"></path>
</svg>
