<!-- Generated by IcoMoon.io -->
<svg version="1.1" xmlns="http://www.w3.org/2000/svg" width="512" height="512" viewBox="0 0 512 512">
<g id="icomoon-ignore">
</g>
<path fill="#000" d="M367.296 495.552h-79.744c-52.864 0-95.696-42.848-95.696-95.696v-143.552h96.704v31.904c0 17.616 13.28 31.888 30.912 31.888h15.936c17.632 0 31.904-14.288 31.904-31.888v-31.904h96.688v143.552c0 52.848-43.856 95.696-96.704 95.696zM367.296 224.4c0-17.616-14.288-31.904-31.904-31.904v0-94.704c0 0-20.928-0.992 30.912-0.992s97.696 33.888 97.696 95.696c0 31.728 0 43.168 0 46.848h-96.704v-14.944zM320.608 86c0-30.832-14.512-48-43.568-48-30.736 0-54.256 22.144-70.544 66.416l-3.344 9.072c-19.056 51.76-46.992 77.648-83.76 77.648-14.848 0-28.704-5.664-41.584-16.96-12.88-11.312-19.312-23.456-19.312-36.464 0-6.432 3.008-9.664 9.056-9.664 4.080 0 8.288 5.136 12.624 15.392 7.872 18.944 21.024 28.416 39.424 28.416 13.936 0 25.328-4.496 34.208-13.52 8.88-9.008 18.976-26.336 30.272-51.984l7.296-16.176c21.424-47.872 50.288-71.808 86.544-71.808 41.552 0 62.32 23.712 62.32 67.632h-19.632zM351.344 232.368v47.84c0 13.216-10.704 23.92-23.92 23.92s-23.92-10.704-23.92-23.92v-47.84c0-13.216 10.704-23.936 23.92-23.936s23.92 10.72 23.92 23.936zM288.544 96.8c51.824 0 31.888 0.992 31.888 0.992v94.704c-17.616 0-31.888 14.288-31.888 31.904v14.96h-96.704c0-3.68 0-15.12 0-46.848 0-61.824 44.864-95.712 96.704-95.712z"></path>
</svg>
