<!-- Generated by IcoMoon.io -->
<svg version="1.1" xmlns="http://www.w3.org/2000/svg" width="512" height="512" viewBox="0 0 512 512">
<g id="icomoon-ignore">
</g>
<path fill="#000" d="M504.688 2.56c-2.656-1.712-5.68-2.56-8.688-2.56-3.088 0-6.192 0.88-8.88 2.688l-480 320c-4.944 3.28-7.664 9.056-7.024 14.976 0.608 5.904 4.448 11.008 9.968 13.184l125.184 50.096 58.864 103.008c2.816 4.944 8.048 8 13.712 8.064 0.064 0 0.112 0 0.176 0 5.616 0 10.832-2.976 13.712-7.776l33.232-55.408 155.12 62.032c1.904 0.768 3.904 1.136 5.936 1.136 2.72 0 5.408-0.688 7.84-2.064 4.224-2.368 7.12-6.528 7.936-11.312l80-480c1.040-6.288-1.744-12.592-7.088-16.064zM50.176 332.432l370.8-247.216-269.6 288.592c-1.424-0.848-2.688-1.968-4.256-2.592l-96.944-38.784zM163.024 385.056c-0.032-0.064-0.080-0.096-0.112-0.16l303.088-324.4-258.384 402.592-44.592-78.032zM403.472 473.744l-136.656-54.656c-3.248-1.28-6.624-1.712-9.968-1.904l210.432-326.208-63.808 382.768z"></path>
</svg>
