<!-- Generated by IcoMoon.io -->
<svg version="1.1" xmlns="http://www.w3.org/2000/svg" width="433" height="512" viewBox="0 0 433 512">
<g id="icomoon-ignore">
</g>
<path fill="#000" d="M103.677 438.918l26.009-26.009-67.165-67.165-26.008 26.009v30.582h36.584v36.584h30.582zM253.155 173.688c0-3.715-2.572-6.287-6.287-6.287-1.715 0-3.429 0.571-4.858 2l-154.908 154.908c-1.429 1.429-2.001 3.144-2.001 4.858 0 3.716 2.573 6.288 6.287 6.288 1.715 0 3.43-0.572 4.859-2l154.908-154.908c1.429-1.429 2-3.144 2-4.858zM237.721 118.811l118.897 118.897-237.793 237.793h-118.897v-118.897zM432.928 146.249c0 9.718-4.002 19.149-10.575 25.723l-47.444 47.444-118.897-118.897 47.444-47.158c6.574-6.859 16.005-10.861 25.723-10.861s19.149 4.002 26.009 10.861l67.165 66.879c6.574 6.859 10.575 16.291 10.575 26.008z"></path>
</svg>
