<!-- Generated by IcoMoon.io -->
<svg version="1.1" xmlns="http://www.w3.org/2000/svg" width="439" height="512" viewBox="0 0 439 512">
<g id="icomoon-ignore">
</g>
<path fill="#000" d="M365.714 340.857c0-1.428 0-3.143-0.572-4.572-1.714-5.143-43.428-26.286-51.428-30.857-5.428-3.143-12-9.428-18.572-9.428-12.572 0-31.143 37.428-42.286 37.428-5.714 0-12.857-5.143-18-8-37.714-21.143-63.714-47.143-84.857-84.857-2.857-5.143-8-12.286-8-18 0-11.143 37.429-29.715 37.429-42.285 0-6.572-6.286-13.143-9.428-18.572-4.572-8-25.714-49.715-30.857-51.428-1.429-0.572-3.143-0.572-4.571-0.572-7.428 0-22 3.428-28.857 6.285-18.857 8.572-32.572 44.572-32.572 64.285 0 19.143 7.715 36.571 14.285 54.285 22.857 62.572 90.857 130.571 153.429 153.429 17.714 6.572 35.143 14.286 54.286 14.286 19.714 0 55.714-13.714 64.286-32.572 2.857-6.857 6.286-21.428 6.286-28.857zM438.857 118.857v274.286c0 45.428-36.857 82.286-82.286 82.286h-274.286c-45.428 0-82.285-36.857-82.285-82.286v-274.286c0-45.428 36.857-82.285 82.285-82.285h274.286c45.428 0 82.286 36.857 82.286 82.285z"></path>
</svg>
