<!-- Generated by IcoMoon.io -->
<svg version="1.1" xmlns="http://www.w3.org/2000/svg" width="768" height="768" viewBox="0 0 768 768">
<g id="icomoon-ignore">
</g>
<path fill="#000" d="M480 384q0-39-28.5-67.5t-67.5-28.5v-64.5q66 0 113.25 47.25t47.25 113.25h-64.5zM607.5 384q0-93-65.25-158.25t-158.25-65.25v-64.5q120 0 204 84t84 204h-64.5zM640.5 496.5q13.5 0 22.5 9t9 22.5v112.5q0 13.5-9 22.5t-22.5 9q-225 0-384.75-159.75t-159.75-384.75q0-13.5 9-22.5t22.5-9h112.5q13.5 0 22.5 9t9 22.5v1.5q0 61.5 18 112.5 3 6 3 10.5 0 15-10.5 22.5l-70.5 70.5q30 57 92.25 119.25t119.25 92.25l70.5-70.5q10.5-10.5 22.5-10.5 4.5 0 10.5 3 54 18 114 18z"></path>
</svg>
