<!-- Generated by IcoMoon.io -->
<svg version="1.1" xmlns="http://www.w3.org/2000/svg" width="512" height="512" viewBox="0 0 512 512">
<g id="icomoon-ignore">
</g>
<path d="M144 192h-96c-8.8 0-16 7.2-16 16v288c0 8.8 7.2 16 16 16h96c8.8 0 16-7.2 16-16v-288c0-8.8-7.2-16-16-16zM144 480h-96v-128h96v128zM304 128h-96c-8.8 0-16 7.2-16 16v352c0 8.8 7.2 16 16 16h96c8.8 0 16-7.2 16-16v-352c0-8.8-7.2-16-16-16zM304 480h-96v-160h96v160zM464 64h-96c-8.8 0-16 7.2-16 16v416c0 8.8 7.2 16 16 16h96c8.8 0 16-7.2 16-16v-416c0-8.8-7.2-16-16-16zM464 480h-96v-192h96v192z"></path>
</svg>
